<mxfile host="Electron" agent="Mozilla/5.0 (Windows NT 10.0; Win64; x64) AppleWebKit/537.36 (KHTML, like Gecko) draw.io/27.0.9 Chrome/134.0.6998.205 Electron/35.4.0 Safari/537.36" version="27.0.9">
  <diagram name="Página-1" id="2PapkYOdX6HtAYT5EN4S">
    <mxGraphModel dx="1025" dy="803" grid="1" gridSize="10" guides="1" tooltips="1" connect="1" arrows="1" fold="1" page="1" pageScale="1" pageWidth="827" pageHeight="1169" math="0" shadow="0">
      <root>
        <mxCell id="0" />
        <mxCell id="1" parent="0" />
        <mxCell id="tkxlwRTvZhOSqbo0Jft4-11" value="" style="edgeStyle=orthogonalEdgeStyle;rounded=0;orthogonalLoop=1;jettySize=auto;html=1;" edge="1" parent="1" source="tkxlwRTvZhOSqbo0Jft4-9" target="tkxlwRTvZhOSqbo0Jft4-10">
          <mxGeometry relative="1" as="geometry" />
        </mxCell>
        <mxCell id="tkxlwRTvZhOSqbo0Jft4-9" value="Se reproduce un sonido" style="rounded=0;whiteSpace=wrap;html=1;" vertex="1" parent="1">
          <mxGeometry x="30" y="30" width="120" height="60" as="geometry" />
        </mxCell>
        <mxCell id="tkxlwRTvZhOSqbo0Jft4-13" value="" style="edgeStyle=orthogonalEdgeStyle;rounded=0;orthogonalLoop=1;jettySize=auto;html=1;" edge="1" parent="1" source="tkxlwRTvZhOSqbo0Jft4-10" target="tkxlwRTvZhOSqbo0Jft4-12">
          <mxGeometry relative="1" as="geometry" />
        </mxCell>
        <mxCell id="tkxlwRTvZhOSqbo0Jft4-10" value="Adivina que tipo de sonido es" style="whiteSpace=wrap;html=1;rounded=0;" vertex="1" parent="1">
          <mxGeometry x="230" y="30" width="120" height="60" as="geometry" />
        </mxCell>
        <mxCell id="tkxlwRTvZhOSqbo0Jft4-15" value="" style="edgeStyle=orthogonalEdgeStyle;rounded=0;orthogonalLoop=1;jettySize=auto;html=1;" edge="1" parent="1" source="tkxlwRTvZhOSqbo0Jft4-12" target="tkxlwRTvZhOSqbo0Jft4-14">
          <mxGeometry relative="1" as="geometry" />
        </mxCell>
        <mxCell id="tkxlwRTvZhOSqbo0Jft4-17" value="" style="edgeStyle=orthogonalEdgeStyle;rounded=0;orthogonalLoop=1;jettySize=auto;html=1;" edge="1" parent="1" source="tkxlwRTvZhOSqbo0Jft4-12" target="tkxlwRTvZhOSqbo0Jft4-16">
          <mxGeometry relative="1" as="geometry" />
        </mxCell>
        <mxCell id="tkxlwRTvZhOSqbo0Jft4-12" value="aserto" style="rhombus;whiteSpace=wrap;html=1;rounded=0;" vertex="1" parent="1">
          <mxGeometry x="250" y="220" width="80" height="80" as="geometry" />
        </mxCell>
        <mxCell id="tkxlwRTvZhOSqbo0Jft4-19" value="" style="edgeStyle=orthogonalEdgeStyle;rounded=0;orthogonalLoop=1;jettySize=auto;html=1;" edge="1" parent="1" source="tkxlwRTvZhOSqbo0Jft4-14" target="tkxlwRTvZhOSqbo0Jft4-18">
          <mxGeometry relative="1" as="geometry" />
        </mxCell>
        <mxCell id="tkxlwRTvZhOSqbo0Jft4-14" value="no" style="ellipse;whiteSpace=wrap;html=1;rounded=0;" vertex="1" parent="1">
          <mxGeometry x="410" y="220" width="80" height="80" as="geometry" />
        </mxCell>
        <mxCell id="tkxlwRTvZhOSqbo0Jft4-23" value="" style="edgeStyle=orthogonalEdgeStyle;rounded=0;orthogonalLoop=1;jettySize=auto;html=1;" edge="1" parent="1" source="tkxlwRTvZhOSqbo0Jft4-16" target="tkxlwRTvZhOSqbo0Jft4-22">
          <mxGeometry relative="1" as="geometry" />
        </mxCell>
        <mxCell id="tkxlwRTvZhOSqbo0Jft4-16" value="si" style="ellipse;whiteSpace=wrap;html=1;rounded=0;" vertex="1" parent="1">
          <mxGeometry x="90" y="220" width="80" height="80" as="geometry" />
        </mxCell>
        <mxCell id="tkxlwRTvZhOSqbo0Jft4-21" value="" style="edgeStyle=orthogonalEdgeStyle;rounded=0;orthogonalLoop=1;jettySize=auto;html=1;" edge="1" parent="1" source="tkxlwRTvZhOSqbo0Jft4-18" target="tkxlwRTvZhOSqbo0Jft4-20">
          <mxGeometry relative="1" as="geometry" />
        </mxCell>
        <mxCell id="tkxlwRTvZhOSqbo0Jft4-18" value="se le da un punto negativo" style="whiteSpace=wrap;html=1;rounded=0;" vertex="1" parent="1">
          <mxGeometry x="550" y="230" width="120" height="60" as="geometry" />
        </mxCell>
        <mxCell id="tkxlwRTvZhOSqbo0Jft4-20" value="se refuersa el entrnamiento con mas de ese sonido" style="rounded=0;whiteSpace=wrap;html=1;" vertex="1" parent="1">
          <mxGeometry x="550" y="370" width="120" height="60" as="geometry" />
        </mxCell>
        <mxCell id="tkxlwRTvZhOSqbo0Jft4-22" value="Se le da un punto positivo" style="whiteSpace=wrap;html=1;rounded=0;" vertex="1" parent="1">
          <mxGeometry x="70" y="390" width="120" height="60" as="geometry" />
        </mxCell>
        <mxCell id="tkxlwRTvZhOSqbo0Jft4-24" value="" style="curved=1;endArrow=classic;html=1;rounded=0;entryX=0.075;entryY=0.967;entryDx=0;entryDy=0;exitX=0.5;exitY=1;exitDx=0;exitDy=0;entryPerimeter=0;" edge="1" parent="1" source="tkxlwRTvZhOSqbo0Jft4-20" target="tkxlwRTvZhOSqbo0Jft4-9">
          <mxGeometry width="50" height="50" relative="1" as="geometry">
            <mxPoint x="380" y="330" as="sourcePoint" />
            <mxPoint x="430" y="280" as="targetPoint" />
            <Array as="points">
              <mxPoint x="490" y="450" />
              <mxPoint x="280" y="520" />
              <mxPoint x="-50" y="600" />
            </Array>
          </mxGeometry>
        </mxCell>
        <mxCell id="tkxlwRTvZhOSqbo0Jft4-25" value="" style="curved=1;endArrow=classic;html=1;rounded=0;entryX=0.25;entryY=1;entryDx=0;entryDy=0;exitX=0.5;exitY=1;exitDx=0;exitDy=0;" edge="1" parent="1" source="tkxlwRTvZhOSqbo0Jft4-22" target="tkxlwRTvZhOSqbo0Jft4-9">
          <mxGeometry width="50" height="50" relative="1" as="geometry">
            <mxPoint x="380" y="330" as="sourcePoint" />
            <mxPoint x="430" y="280" as="targetPoint" />
            <Array as="points">
              <mxPoint x="80" y="520" />
              <mxPoint x="30" y="300" />
            </Array>
          </mxGeometry>
        </mxCell>
        <mxCell id="tkxlwRTvZhOSqbo0Jft4-26" value="&lt;h1 style=&quot;margin-top: 0px;&quot;&gt;¿Como?&lt;/h1&gt;&lt;p&gt;Para esto nesesito obtener una conversion del sonido a texto&lt;/p&gt;" style="text;html=1;whiteSpace=wrap;overflow=hidden;rounded=0;" vertex="1" parent="1">
          <mxGeometry x="390" y="10" width="180" height="120" as="geometry" />
        </mxCell>
      </root>
    </mxGraphModel>
  </diagram>
</mxfile>
